<svg width="145" height="120" viewBox="0 0 145 120" fill="none" xmlns="http://www.w3.org/2000/svg">
<mask id="mask0_16_13" style="mask-type:alpha" maskUnits="userSpaceOnUse" x="76" y="0" width="69" height="117">
<rect x="76.2452" width="68.5514" height="116.471" fill="#D9D9D9"/>
</mask>
<g mask="url(#mask0_16_13)">
<path fill-rule="evenodd" clip-rule="evenodd" d="M83.8621 3.94814C88.0688 3.94814 91.4789 6.59962 91.4789 9.87038L91.4789 96.2508L126.949 68.6718C129.924 66.3591 134.747 66.3591 137.721 68.6718C140.696 70.9846 140.696 74.7344 137.721 77.0471L89.248 114.736C86.2735 117.049 81.4507 117.049 78.4762 114.736C78.4762 114.736 32.9776 79.3599 30.0031 77.0471C27.0285 74.7343 30.0031 68.6718 30.0031 68.6718C30.0031 68.6718 37.8003 66.359 40.7749 68.6718C43.7494 70.9846 76.2453 96.2508 76.2453 96.2508L76.2453 9.87038C76.2453 6.59962 79.6555 3.94814 83.8621 3.94814Z" fill="#FF685A"/>
</g>
<mask id="mask1_16_13" style="mask-type:alpha" maskUnits="userSpaceOnUse" x="0" y="3" width="69" height="117">
<rect x="68.5514" y="120" width="68.5514" height="116.471" transform="rotate(-180 68.5514 120)" fill="#D9D9D9"/>
</mask>
<g mask="url(#mask1_16_13)">
<path fill-rule="evenodd" clip-rule="evenodd" d="M60.9345 116.052C56.7279 116.052 53.3177 113.4 53.3177 110.13L53.3177 23.7492L17.8473 51.3282C14.8727 53.6409 10.05 53.6409 7.07548 51.3282C4.10092 49.0154 4.10092 45.2656 7.07548 42.9529L55.5486 5.26402C58.5232 2.95125 63.3459 2.95125 66.3204 5.26402C66.3204 5.26402 111.819 40.6401 114.794 42.9529C117.768 45.2657 114.794 51.3282 114.794 51.3282C114.794 51.3282 106.996 53.641 104.022 51.3282C101.047 49.0154 68.5514 23.7492 68.5514 23.7492L68.5513 110.13C68.5513 113.4 65.1412 116.052 60.9345 116.052Z" fill="#04B36E"/>
</g>
</svg>
