<svg width="118" height="194" viewBox="0 0 118 194" fill="none" xmlns="http://www.w3.org/2000/svg">
<path d="M82.0455 66.1364L78.1818 79.3182H4.54545L8.40909 66.1364H82.0455ZM47.5 155L5.90909 104.091L5.68182 94.5455H26.3636C31.7424 94.5455 36.3258 93.7879 40.1136 92.2727C43.9015 90.7197 46.7992 88.4091 48.8068 85.3409C50.8144 82.2348 51.8182 78.3333 51.8182 73.6364C51.8182 66.7045 49.7349 61.2689 45.5682 57.3295C41.4015 53.3523 35 51.3636 26.3636 51.3636H4.54545L8.40909 38.6364H26.3636C35.6061 38.6364 43.1818 40.1705 49.0909 43.2386C55.0379 46.2689 59.4318 50.4356 62.2727 55.7386C65.1515 61.0038 66.5909 66.9697 66.5909 73.6364C66.5909 79.6591 65.2652 85.2083 62.6136 90.2841C60 95.322 55.7955 99.375 50 102.443C44.2424 105.511 36.6288 107.045 27.1591 107.045H26.8182L65.2273 154.091V155H47.5ZM82.0455 38.6364L78.1818 51.8182L20.2273 51.3636L24.0909 38.6364H82.0455Z" fill="white"/>
<path fill-rule="evenodd" clip-rule="evenodd" d="M92.8473 154.763C90.9939 154.763 89.4914 153.26 89.4914 151.407L89.4914 102.458L73.8633 118.086C72.5528 119.397 70.4279 119.397 69.1173 118.086C67.8068 116.775 67.8068 114.651 69.1173 113.34L90.4744 91.9829C91.7849 90.6724 93.9098 90.6724 95.2204 91.9829C95.2204 91.9829 115.267 112.029 116.577 113.34C117.888 114.651 117.888 116.775 116.577 118.086C115.267 119.397 113.142 119.397 111.831 118.086C110.521 116.775 96.2033 102.458 96.2033 102.458L96.2033 151.407C96.2033 153.26 94.7008 154.763 92.8473 154.763Z" fill="#FF685A"/>
</svg>
