<svg width="118" height="194" viewBox="0 0 118 194" fill="none" xmlns="http://www.w3.org/2000/svg">
<path d="M82.0455 66.1364L78.1818 79.3182H4.54545L8.40909 66.1364H82.0455ZM47.5 155L5.90909 104.091L5.68182 94.5455H26.3636C31.7424 94.5455 36.3258 93.7879 40.1136 92.2727C43.9015 90.7197 46.7992 88.4091 48.8068 85.3409C50.8144 82.2348 51.8182 78.3333 51.8182 73.6364C51.8182 66.7045 49.7349 61.2689 45.5682 57.3295C41.4015 53.3523 35 51.3636 26.3636 51.3636H4.54545L8.40909 38.6364H26.3636C35.6061 38.6364 43.1818 40.1705 49.0909 43.2386C55.0379 46.2689 59.4318 50.4356 62.2727 55.7386C65.1515 61.0038 66.5909 66.9697 66.5909 73.6364C66.5909 79.6591 65.2652 85.2083 62.6136 90.2841C60 95.322 55.7955 99.375 50 102.443C44.2424 105.511 36.6288 107.045 27.1591 107.045H26.8182L65.2273 154.091V155H47.5ZM82.0455 38.6364L78.1818 51.8182L20.2273 51.3636L24.0909 38.6364H82.0455Z" fill="white"/>
<path fill-rule="evenodd" clip-rule="evenodd" d="M92.447 91C94.3004 91 95.8029 92.5025 95.8029 94.3559L95.8029 143.305L111.431 127.677C112.742 126.366 114.866 126.366 116.177 127.677C117.488 128.987 117.488 131.112 116.177 132.423L94.82 153.78C93.5094 155.09 91.3845 155.09 90.074 153.78C90.074 153.78 70.0275 133.733 68.7169 132.423C67.4064 131.112 67.4064 128.987 68.7169 127.677C70.0275 126.366 72.1524 126.366 73.4629 127.677C74.7735 128.987 89.091 143.305 89.091 143.305L89.091 94.3559C89.091 92.5025 90.5935 91 92.447 91Z" fill="#04B36E"/>
</svg>
