<svg width="1930" height="1021" viewBox="0 0 1930 1021" fill="none" xmlns="http://www.w3.org/2000/svg">
<rect width="1930" height="1021" fill="url(#paint0_linear_195_571)"/>
<path d="M1656.41 779.188H1591.89V779.669H1656.41V779.188Z" fill="#EBEBEB"/>
<path d="M1425.22 784.404H1408.28V784.884H1425.22V784.404Z" fill="#EBEBEB"/>
<path d="M1589.93 761.344H1552.55V761.824H1589.93V761.344Z" fill="#EBEBEB"/>
<path d="M966.329 764.572H882.189V765.052H966.329V764.572Z" fill="#EBEBEB"/>
<path d="M996.011 764.572H983.674V765.052H996.011V764.572Z" fill="#EBEBEB"/>
<path d="M1218.59 772.688H1036.11V773.169H1218.59V772.688Z" fill="#EBEBEB"/>
<path d="M1244.4 662.553H868.247C862.117 662.553 857.128 657.631 857.128 651.583V129.969C857.128 123.922 862.117 119 868.247 119H1244.4C1250.53 119 1255.52 123.922 1255.52 129.969V651.583C1255.52 657.631 1250.53 662.553 1244.4 662.553ZM868.247 119.482C862.384 119.482 857.615 124.187 857.615 129.971V651.585C857.615 657.37 862.384 662.074 868.247 662.074H1244.4C1250.27 662.074 1255.03 657.37 1255.03 651.585V129.969C1255.03 124.187 1250.27 119.48 1244.4 119.48L868.247 119.482Z" fill="#EBEBEB"/>
<path d="M1665.75 662.553H1289.59C1283.47 662.553 1278.48 657.631 1278.48 651.583V129.969C1278.48 123.922 1283.47 119 1289.59 119H1665.75C1671.88 119 1676.87 123.922 1676.87 129.969V651.583C1676.87 657.631 1671.88 662.553 1665.75 662.553ZM1289.59 119.482C1283.73 119.482 1278.96 124.187 1278.96 129.971V651.585C1278.96 657.37 1283.73 662.074 1289.59 662.074H1665.75C1671.61 662.074 1676.38 657.37 1676.38 651.585V129.969C1676.38 124.187 1671.61 119.48 1665.75 119.48L1289.59 119.482Z" fill="#EBEBEB"/>
<path d="M1754 748.257H780V748.737H1754V748.257Z" fill="#EBEBEB"/>
<path d="M1012.46 618.258C1010.81 599.698 991.606 592.751 968.848 594.715C946.091 596.679 928.4 606.812 930.046 625.372L1012.46 618.258Z" fill="#B0C7FC"/>
<path d="M968.095 586.232C978.657 585.321 982.029 576.52 981.104 566.1C980.181 555.681 975.311 547.59 964.748 548.503C954.186 549.414 950.814 558.215 951.74 568.635C952.663 579.054 957.533 587.145 968.095 586.232Z" fill="#B0C7FC"/>
<path d="M1442.52 222.809C1443.03 228.555 1438.72 233.62 1432.89 234.122C1427.07 234.625 1421.94 230.375 1421.43 224.629C1420.92 218.883 1425.23 213.817 1431.05 213.314C1436.87 212.812 1442.01 217.063 1442.52 222.809Z" fill="#B0C7FC"/>
<path d="M1501.1 217.753C1501.61 223.499 1497.3 228.564 1491.48 229.066C1485.65 229.569 1480.52 225.318 1480.01 219.573C1479.5 213.827 1483.81 208.761 1489.63 208.257C1495.46 207.756 1500.59 212.007 1501.1 217.753Z" fill="#B0C7FC"/>
<path d="M1559.68 212.696C1560.19 218.442 1555.88 223.508 1550.06 224.011C1544.23 224.515 1539.1 220.264 1538.59 214.518C1538.08 208.772 1542.39 203.707 1548.21 203.203C1554.04 202.7 1559.17 206.95 1559.68 212.696Z" fill="#B0C7FC"/>
<path d="M1447.74 281.715C1448.25 287.461 1443.94 292.527 1438.12 293.03C1432.29 293.534 1427.16 289.283 1426.65 283.537C1426.14 277.791 1430.45 272.725 1436.27 272.224C1442.1 271.718 1447.23 275.967 1447.74 281.715Z" fill="#B0C7FC"/>
<path d="M1506.32 276.657C1506.83 282.403 1502.53 287.469 1496.7 287.972C1490.88 288.476 1485.74 284.225 1485.23 278.479C1484.72 272.733 1489.03 267.667 1494.85 267.164C1500.68 266.662 1505.81 270.913 1506.32 276.657Z" fill="#B0C7FC"/>
<path d="M1564.91 271.601C1565.42 277.347 1561.11 282.413 1555.28 282.914C1549.46 283.418 1544.32 279.167 1543.81 273.421C1543.3 267.675 1547.61 262.609 1553.44 262.106C1559.26 261.606 1564.4 265.857 1564.91 271.601Z" fill="#B0C7FC"/>
<path d="M1452.97 340.619C1453.48 346.365 1449.17 351.43 1443.34 351.934C1437.52 352.437 1432.38 348.186 1431.88 342.44C1431.37 336.695 1435.67 331.629 1441.5 331.125C1447.32 330.622 1452.46 334.873 1452.97 340.619Z" fill="#B0C7FC"/>
<path d="M1511.55 335.563C1512.06 341.309 1507.75 346.375 1501.93 346.878C1496.1 347.382 1490.97 343.131 1490.46 337.385C1489.95 331.639 1494.25 326.574 1500.08 326.072C1505.9 325.567 1511.04 329.817 1511.55 335.563Z" fill="#B0C7FC"/>
<path d="M1570.13 330.507C1570.64 336.253 1566.33 341.318 1560.51 341.82C1554.68 342.322 1549.55 338.073 1549.04 332.327C1548.52 326.581 1552.83 321.515 1558.66 321.014C1564.48 320.51 1569.62 324.761 1570.13 330.507Z" fill="#B0C7FC"/>
<path d="M1557.47 333.899L1437.11 344.288L1543.83 216.365L1434.49 225.802C1433.21 225.912 1432.08 224.98 1431.97 223.719C1431.86 222.459 1432.81 221.348 1434.08 221.238L1554.44 210.85L1447.73 338.772L1557.07 329.335C1558.35 329.225 1559.47 330.157 1559.58 331.416C1559.7 332.677 1558.75 333.789 1557.47 333.899Z" fill="#676F74"/>
<path d="M1559.32 562.251C1558.92 561.119 1557.89 560.279 1556.68 560.2C1551.16 559.835 1546.5 557.798 1542.8 554.141C1537.99 549.373 1535.16 542.117 1534.7 533.502C1534.62 531.897 1533.25 530.646 1531.63 530.637C1529.82 530.625 1528.38 532.128 1528.48 533.904C1529.04 544.008 1532.5 552.65 1538.39 558.482C1542.99 563.039 1548.92 565.708 1555.68 566.29C1555.79 566.3 1555.95 566.313 1556.12 566.327C1558.36 566.502 1560.05 564.346 1559.32 562.251Z" fill="#B0C7FC"/>
<path d="M1553.09 599.137C1527.27 596.908 1508.66 579.549 1502.77 552.46C1502.39 550.733 1503.51 549.032 1505.27 548.73C1506.9 548.452 1508.49 549.47 1508.84 551.067C1514.12 575.429 1530.69 591.029 1553.64 593.011C1578.8 595.182 1605.82 578.851 1610.66 537.681C1610.86 536.013 1612.33 534.781 1614.03 534.927C1615.76 535.077 1617.07 536.604 1616.86 538.311C1612.22 577.128 1586.35 602.008 1553.09 599.137Z" fill="#B0C7FC"/>
<path d="M1504.38 525.462C1502.65 525.312 1501.35 523.784 1501.55 522.078C1506.19 483.259 1532.07 458.381 1565.32 461.25C1594.46 463.765 1614.11 485.287 1617.17 517.706C1617.33 519.418 1615.99 520.909 1614.25 521.011H1614.24C1612.54 521.111 1611.11 519.847 1610.95 518.179C1608.14 488.971 1590.66 469.609 1564.78 467.376C1539.61 465.205 1512.59 481.534 1507.75 522.706C1507.55 524.376 1506.08 525.608 1504.38 525.462Z" fill="#B0C7FC"/>
<path d="M1554.36 582.671C1549.56 582.256 1545.06 581.151 1540.93 579.37C1539.25 578.645 1538.55 576.649 1539.43 575.059C1540.2 573.674 1541.9 573.074 1543.37 573.71C1547.25 575.394 1551.55 576.383 1556.17 576.633C1575.26 577.711 1595.4 564.377 1597.37 532.157C1598.59 512.314 1591.7 496.284 1578.83 488.619C1577.45 487.796 1576.94 486.076 1577.65 484.65C1578.46 483.03 1580.51 482.433 1582.08 483.365C1596.96 492.232 1604.96 510.323 1603.6 532.528C1601.69 563.596 1582.04 584.259 1555.81 582.777C1555.33 582.746 1554.84 582.712 1554.36 582.671Z" fill="#B0C7FC"/>
<path d="M1526.6 563.504C1525.1 564.52 1523.04 564.045 1522.12 562.485C1516.6 553.061 1514.02 540.91 1514.82 527.86C1516.64 498.14 1534.7 477.941 1559.23 477.543C1561.05 477.515 1562.52 479.015 1562.41 480.808V480.816C1562.32 482.413 1561 483.67 1559.38 483.701C1541.19 484.054 1522.92 497.618 1521.04 528.231C1520.31 540.114 1522.62 551.082 1527.56 559.468C1528.37 560.846 1527.94 562.604 1526.6 563.504Z" fill="#B0C7FC"/>
<path d="M1569.2 560.99C1568.56 559.566 1569.12 557.921 1570.47 557.118C1578.66 552.252 1583.69 542.04 1583.78 529.731C1583.84 519.871 1580.94 511.531 1575.61 506.246C1571.49 502.168 1566.17 500.116 1559.8 500.128C1550.19 500.152 1542.42 505.343 1538.11 514.477C1537.43 515.914 1535.74 516.595 1534.23 516.047C1532.52 515.424 1531.7 513.474 1532.48 511.84C1537.81 500.619 1547.81 494.007 1559.78 493.974C1567.77 493.963 1574.77 496.697 1580.03 501.905C1586.54 508.362 1590.09 518.257 1590.01 529.772C1589.91 544.298 1583.71 556.474 1573.61 562.433C1572.02 563.371 1569.94 562.664 1569.2 560.99Z" fill="#B0C7FC"/>
<path d="M1546.75 538.397C1544.98 539.099 1543 538.084 1542.55 536.255C1542.34 535.423 1542.17 534.565 1542.04 533.683C1540.27 522.184 1546.54 512.17 1556.61 510.394C1561.81 509.474 1566.45 510.681 1569.99 513.801C1571.43 515.07 1571.32 517.332 1569.75 518.44L1569.55 518.577C1568.37 519.411 1566.82 519.223 1565.72 518.289C1563.6 516.499 1560.92 515.881 1557.71 516.448C1550.03 517.802 1547.11 525.681 1548.2 532.763C1548.31 533.453 1548.44 534.122 1548.6 534.763C1548.97 536.272 1548.21 537.817 1546.75 538.397Z" fill="#B0C7FC"/>
<path d="M1557.05 550.228C1557.05 550.228 1557.04 550.226 1557.03 550.226C1554.88 550.037 1553.69 547.662 1554.84 545.858L1555.1 545.441C1555.68 544.538 1556.7 544.04 1557.78 544.115C1558.71 544.176 1559.69 544.119 1560.71 543.938C1567.41 542.754 1570.49 536.597 1570.43 530.34C1570.42 528.778 1571.52 527.428 1573.08 527.196C1574.91 526.923 1576.64 528.264 1576.67 530.09C1576.86 540.118 1570.87 548.394 1561.8 549.993C1560.17 550.282 1558.58 550.36 1557.05 550.228Z" fill="#B0C7FC"/>
<path d="M1558.44 538.876C1555.12 538.59 1552.65 536.384 1551.75 533.234C1551.23 531.408 1552.78 529.64 1554.7 529.806L1555.41 529.867C1556.52 529.963 1557.44 530.713 1557.81 531.75C1557.99 532.258 1558.33 532.692 1558.98 532.748C1560.48 532.877 1560.74 530.757 1560.78 530.33C1560.81 530.027 1560.87 528.849 1560.36 528.155C1559.86 527.475 1559.52 526.696 1559.59 525.858C1559.84 523.124 1563.34 522.025 1565.11 524.146C1566.51 525.834 1567.23 528.195 1567 530.866C1566.55 535.896 1562.95 539.266 1558.44 538.876Z" fill="#B0C7FC"/>
<path d="M1499.85 470.099C1498.14 469.951 1496.87 468.46 1497.02 466.767L1499.38 440.12L1526.39 442.451C1528.11 442.599 1529.38 444.09 1529.23 445.783C1529.08 447.476 1527.57 448.727 1525.85 448.58L1505.05 446.785L1503.23 467.303C1503.08 468.996 1501.57 470.247 1499.85 470.099Z" fill="#B0C7FC"/>
<path d="M1628.28 481.183C1626.57 481.035 1625.3 479.544 1625.45 477.851L1627.27 457.333L1606.47 455.538C1604.75 455.39 1603.49 453.898 1603.64 452.205C1603.79 450.512 1605.3 449.261 1607.01 449.409L1634.02 451.74L1631.66 478.387C1631.51 480.08 1630 481.331 1628.28 481.183Z" fill="#B0C7FC"/>
<path d="M1618.71 624.445L1591.7 622.114C1589.98 621.966 1588.71 620.475 1588.86 618.782C1589.01 617.089 1590.52 615.838 1592.24 615.986L1613.04 617.781L1614.86 597.263C1615.01 595.57 1616.52 594.319 1618.24 594.466C1619.95 594.614 1621.22 596.106 1621.07 597.799L1618.71 624.445Z" fill="#B0C7FC"/>
<path d="M1511.08 615.156L1484.07 612.825L1486.43 586.178C1486.58 584.485 1488.09 583.234 1489.81 583.382C1491.52 583.53 1492.79 585.021 1492.64 586.714L1490.82 607.232L1511.62 609.027C1513.34 609.175 1514.61 610.666 1514.46 612.36C1514.31 614.053 1512.79 615.304 1511.08 615.156Z" fill="#B0C7FC"/>
<path d="M925.573 557.485C924.519 557.575 923.588 556.806 923.496 555.765L922.043 539.382L938.65 537.949C939.705 537.858 940.635 538.627 940.726 539.669C940.818 540.708 940.039 541.627 938.983 541.717L926.194 542.82L927.312 555.436C927.408 556.478 926.627 557.394 925.573 557.485Z" fill="#E0E0E0"/>
<path d="M1004.54 550.671C1003.49 550.761 1002.55 549.992 1002.46 548.951L1001.34 536.335L988.556 537.438C987.502 537.528 986.571 536.76 986.479 535.718C986.387 534.678 987.167 533.76 988.222 533.669L1004.83 532.236L1006.28 548.618C1006.37 549.662 1005.59 550.58 1004.54 550.671Z" fill="#E0E0E0"/>
<path d="M1012.72 621.216L996.112 622.65C995.058 622.74 994.127 621.971 994.036 620.93C993.944 619.89 994.723 618.972 995.779 618.881L1008.57 617.778L1007.45 605.162C1007.36 604.121 1008.14 603.204 1009.19 603.114C1010.25 603.023 1011.18 603.792 1011.27 604.834L1012.72 621.216Z" fill="#E0E0E0"/>
<path d="M946.546 626.929L929.939 628.362L928.486 611.978C928.394 610.938 929.173 610.019 930.229 609.929C931.283 609.839 932.214 610.607 932.306 611.649L933.424 624.265L946.213 623.162C947.266 623.072 948.198 623.84 948.289 624.882C948.381 625.92 947.6 626.836 946.546 626.929Z" fill="#E0E0E0"/>
<path d="M1003.21 284.26L939.643 289.746L938.342 275.072C936.992 259.848 948.448 246.381 963.878 245.049C979.311 243.718 992.962 255.019 994.312 270.241L995.068 278.768L1004.24 277.976L1003.48 269.449C1001.69 249.237 983.565 234.234 963.076 236.002C942.587 237.77 927.379 255.651 929.171 275.864L930.48 290.623C923.083 292.045 917.818 298.775 918.488 306.344L923.029 357.544C923.748 365.641 930.983 371.629 939.19 370.921L1010.35 364.78C1018.56 364.073 1024.63 356.935 1023.91 348.839L1019.37 297.639C1018.65 289.541 1011.42 283.551 1003.21 284.26ZM976.207 323.713L977.772 341.342C978.029 344.237 975.859 346.787 972.925 347.04C969.991 347.294 967.406 345.153 967.149 342.259L965.585 324.629C963.251 323.211 961.586 320.784 961.329 317.882C960.896 313.011 964.551 308.716 969.489 308.289C974.427 307.862 978.781 311.468 979.213 316.339C979.468 319.239 978.255 321.916 976.207 323.713Z" fill="#B0C7FC"/>
<path d="M1112.03 313.941L1105.6 303.606C1102.12 304.08 1099.27 304.08 1095.79 303.606L1089.36 313.941L1088.13 313.618C1083.99 312.532 1079.99 310.895 1076.26 308.756L1075.15 308.124L1077.88 296.905C1078.1 295.996 1079.02 295.437 1079.94 295.654C1080.87 295.871 1081.43 296.784 1081.21 297.693L1079.08 306.444C1081.86 307.935 1084.78 309.131 1087.79 310.011L1094.06 299.914L1095.2 300.097C1098.84 300.683 1102.55 300.683 1106.19 300.097L1107.32 299.914L1113.6 310.011C1116.61 309.129 1119.53 307.935 1122.3 306.444L1119.51 294.943L1120.44 294.282C1122.99 292.475 1125.26 290.34 1127.21 287.925C1127.79 287.206 1128.82 287.037 1129.58 287.573C1130.36 288.128 1130.54 289.224 1129.94 289.969C1128.03 292.356 1125.83 294.493 1123.38 296.346L1126.24 308.124L1125.13 308.756C1121.4 310.895 1117.4 312.532 1113.26 313.618L1112.03 313.941ZM1072.64 291.378C1072.1 290.769 1071.58 290.142 1071.08 289.498L1059.13 292.32L1058.49 291.232C1056.32 287.546 1054.67 283.605 1053.56 279.519L1053.24 278.303L1063.71 271.963C1063.47 270.241 1063.36 268.65 1063.36 267.124C1063.36 265.6 1063.47 264.007 1063.71 262.285L1053.24 255.947L1053.56 254.731C1054.67 250.645 1056.32 246.704 1058.49 243.018L1059.13 241.93L1071.07 244.751C1073.07 242.176 1075.4 239.882 1078.01 237.906L1075.85 228.993C1075.63 228.086 1076.19 227.175 1077.11 226.958L1077.12 226.956C1078.04 226.739 1078.96 227.298 1079.18 228.204L1081.87 239.307L1080.93 239.976C1077.94 242.101 1075.32 244.69 1073.16 247.642L1072.49 248.562L1060.83 245.806C1059.32 248.545 1058.11 251.424 1057.22 254.391L1067.45 260.581L1067.26 261.701C1066.94 263.682 1066.78 265.456 1066.78 267.122C1066.78 268.792 1066.94 270.564 1067.26 272.543L1067.45 273.662L1057.22 279.855C1058.11 282.824 1059.32 285.701 1060.83 288.44L1072.49 285.684L1073.16 286.604C1073.79 287.473 1074.47 288.317 1075.19 289.126C1075.79 289.798 1075.77 290.803 1075.12 291.424L1075.06 291.484C1074.37 292.143 1073.27 292.089 1072.64 291.378ZM1142.25 292.321L1137.85 291.282C1136.93 291.065 1136.36 290.152 1136.58 289.243C1136.8 288.336 1137.73 287.775 1138.65 287.992L1140.55 288.442C1142.06 285.703 1143.27 282.824 1144.16 279.857L1133.93 273.664L1134.12 272.545C1134.44 270.566 1134.6 268.792 1134.6 267.124C1134.6 265.456 1134.44 263.684 1134.12 261.703L1133.93 260.582L1144.16 254.393C1143.27 251.424 1142.06 248.547 1140.55 245.808L1128.89 248.564L1128.22 247.644C1126.07 244.692 1123.44 242.103 1120.45 239.978L1119.51 239.309L1122.3 227.808C1119.52 226.318 1116.61 225.123 1113.6 224.241L1107.32 234.336L1106.19 234.155C1102.55 233.573 1098.83 233.573 1095.19 234.155L1094.06 234.336L1087.78 224.243C1087.39 224.356 1087 224.477 1086.61 224.602C1085.74 224.883 1084.81 224.422 1084.49 223.576C1084.16 222.686 1084.63 221.683 1085.54 221.389C1086.4 221.112 1087.26 220.861 1088.12 220.636L1089.36 220.311L1095.78 230.648C1099.28 230.169 1102.1 230.169 1105.59 230.648L1112.02 220.311L1113.25 220.634C1117.39 221.722 1121.39 223.359 1125.13 225.496L1126.23 226.128L1123.37 237.908C1125.98 239.884 1128.31 242.178 1130.31 244.753L1142.25 241.932L1142.89 243.02C1145.05 246.706 1146.71 250.647 1147.81 254.733L1148.14 255.949L1137.67 262.287C1137.91 264.009 1138.02 265.602 1138.02 267.126C1138.02 268.652 1137.91 270.243 1137.67 271.965L1148.14 278.304L1147.81 279.521C1146.71 283.606 1145.05 287.548 1142.89 291.234L1142.25 292.321ZM1100.21 283.591C1091.51 283.349 1084.25 276.193 1084 267.606C1083.75 258.953 1090.31 251.725 1098.77 250.762C1099.79 250.645 1100.69 251.435 1100.69 252.452C1100.69 253.305 1100.05 254.022 1099.19 254.118C1091.73 254.952 1086.13 261.912 1087.69 269.761C1088.7 274.857 1092.87 278.964 1098.03 279.959C1106.51 281.594 1113.97 275.203 1113.97 267.124C1113.97 264.42 1113.12 261.803 1111.56 259.61C1111.07 258.918 1111.21 257.973 1111.85 257.414C1112.62 256.743 1113.82 256.883 1114.4 257.715C1116.34 260.463 1117.39 263.74 1117.39 267.124C1117.39 276.365 1109.64 283.852 1100.21 283.591Z" fill="#B0C7FC"/>
<path d="M990.996 454.608L986.845 447.932C984.597 448.24 982.756 448.24 980.508 447.932L976.357 454.608L975.56 454.399C972.883 453.697 970.302 452.641 967.889 451.257L967.176 450.848L968.937 443.599C969.079 443.013 969.677 442.65 970.271 442.792C970.865 442.932 971.231 443.522 971.089 444.108L969.716 449.762C971.51 450.725 973.394 451.497 975.338 452.066L979.392 445.544L980.126 445.663C982.477 446.041 984.875 446.041 987.226 445.663L987.961 445.544L992.017 452.066C993.961 451.497 995.844 450.725 997.638 449.762L995.833 442.332L996.437 441.904C998.083 440.737 999.549 439.358 1000.81 437.797C1001.18 437.334 1001.85 437.225 1002.34 437.57C1002.84 437.93 1002.96 438.637 1002.57 439.119C1001.34 440.661 999.914 442.042 998.33 443.24L1000.18 450.848L999.466 451.257C997.052 452.639 994.471 453.696 991.794 454.399L990.996 454.608ZM965.549 440.034C965.2 439.64 964.863 439.237 964.54 438.82L956.826 440.643L956.413 439.94C955.012 437.559 953.941 435.013 953.23 432.372L953.018 431.586L959.785 427.491C959.629 426.378 959.553 425.35 959.553 424.364C959.553 423.381 959.629 422.351 959.785 421.238L953.018 417.143L953.23 416.357C953.941 413.716 955.012 411.172 956.413 408.789L956.826 408.086L964.54 409.909C965.832 408.245 967.335 406.764 969.022 405.487L967.624 399.73C967.481 399.144 967.848 398.556 968.44 398.416L968.444 398.414C969.038 398.273 969.634 398.635 969.776 399.221L971.518 406.395L970.908 406.827C968.976 408.199 967.281 409.871 965.89 411.779L965.456 412.375L957.923 410.595C956.949 412.365 956.166 414.224 955.589 416.141L962.198 420.141L962.08 420.865C961.867 422.145 961.766 423.29 961.766 424.368C961.766 425.446 961.869 426.592 962.08 427.872L962.2 428.594L955.591 432.595C956.167 434.513 956.951 436.371 957.925 438.141L965.458 436.362L965.892 436.957C966.301 437.519 966.739 438.064 967.203 438.587C967.589 439.021 967.577 439.671 967.156 440.071L967.115 440.109C966.669 440.526 965.958 440.491 965.549 440.034ZM1010.52 440.641L1007.68 439.971C1007.08 439.83 1006.72 439.24 1006.86 438.654C1007 438.068 1007.6 437.707 1008.19 437.847L1009.42 438.137C1010.4 436.367 1011.18 434.509 1011.76 432.591L1005.15 428.59L1005.27 427.868C1005.48 426.59 1005.58 425.443 1005.58 424.364C1005.58 423.286 1005.48 422.141 1005.27 420.861L1005.15 420.137L1011.76 416.138C1011.18 414.22 1010.4 412.361 1009.42 410.592L1001.89 412.371L1001.46 411.775C1000.07 409.869 998.371 408.195 996.438 406.823L995.829 406.391L997.635 398.959C995.84 397.997 993.957 397.226 992.013 396.655L987.959 403.176L987.226 403.058C984.875 402.682 982.477 402.682 980.124 403.058L979.392 403.176L975.338 396.655C975.086 396.728 974.833 396.807 974.584 396.888C974.023 397.068 973.419 396.771 973.216 396.225C973.002 395.65 973.306 395.003 973.894 394.812C974.448 394.634 975.005 394.47 975.558 394.326L976.357 394.117L980.508 400.795C982.767 400.485 984.585 400.485 986.845 400.795L990.996 394.117L991.793 394.326C994.467 395.03 997.048 396.086 999.464 397.466L1000.18 397.876L998.328 405.486C1000.02 406.762 1001.52 408.243 1002.81 409.907L1010.52 408.084L1010.94 408.787C1012.34 411.168 1013.41 413.714 1014.12 416.355L1014.33 417.141L1007.57 421.236C1007.72 422.349 1007.8 423.377 1007.8 424.363C1007.8 425.348 1007.72 426.376 1007.57 427.489L1014.33 431.584L1014.12 432.37C1013.41 435.011 1012.34 437.557 1010.94 439.938L1010.52 440.641ZM983.365 435.001C977.742 434.845 973.055 430.222 972.893 424.674C972.729 419.084 976.964 414.414 982.43 413.791C983.091 413.716 983.675 414.227 983.675 414.883C983.675 415.434 983.258 415.897 982.703 415.959C977.884 416.497 974.262 420.994 975.272 426.065C975.926 429.357 978.616 432.011 981.955 432.655C987.433 433.712 992.248 429.582 992.248 424.363C992.248 422.616 991.703 420.925 990.698 419.508C990.38 419.062 990.466 418.449 990.881 418.088C991.38 417.654 992.153 417.746 992.533 418.284C993.785 420.06 994.465 422.176 994.465 424.363C994.461 430.333 989.453 435.172 983.365 435.001Z" fill="#B0C7FC" fill-opacity="0.4"/>
<path d="M1267 834.001C1475.6 834.001 1644.7 824.258 1644.7 812.241C1644.7 800.224 1475.6 790.481 1267 790.481C1058.41 790.481 889.306 800.224 889.306 812.241C889.306 824.258 1058.41 834.001 1267 834.001Z" fill="#F5F5F5"/>
<path d="M1488 293.635H1424.57L1379.71 799.524H1443.14C1461.18 799.524 1477.14 785.047 1478.71 767.252L1517.85 325.906C1519.43 308.111 1506.04 293.635 1488 293.635Z" fill="#263238"/>
<path d="M1475.06 293.635H1260.39C1242.35 293.635 1226.4 308.111 1224.82 325.906L1185.68 767.252C1184.1 785.047 1197.49 799.524 1215.53 799.524H1430.2C1448.23 799.524 1464.19 785.047 1465.77 767.252L1504.91 325.906C1506.49 308.111 1493.1 293.635 1475.06 293.635Z" fill="#263238"/>
<path opacity="0.3" d="M1475.06 293.635H1260.39C1242.35 293.635 1226.4 308.111 1224.82 325.906L1185.68 767.252C1184.1 785.047 1197.49 799.524 1215.53 799.524H1430.2C1448.23 799.524 1464.19 785.047 1465.77 767.252L1504.91 325.906C1506.49 308.111 1493.1 293.635 1475.06 293.635Z" fill="white"/>
<path opacity="0.4" d="M1474.14 303.974H1417.55C1414.21 303.974 1411.07 306.136 1409.84 309.291C1405.26 320.956 1393.67 328.944 1381.33 328.944H1347.86C1335.52 328.944 1325.35 320.954 1322.84 309.291C1322.16 306.136 1319.41 303.976 1316.07 303.976H1259.48C1247.2 303.976 1236.37 313.794 1235.3 325.906L1196.16 767.252C1195.08 779.365 1204.17 789.183 1216.44 789.183H1431.11C1443.39 789.183 1454.21 779.365 1455.29 767.252L1494.43 325.906C1495.5 313.794 1486.42 303.974 1474.14 303.974Z" fill="white"/>
<path d="M1420.67 543.709H1270.43C1265.97 543.709 1262.68 540.146 1263.07 535.753L1263.82 527.273C1264.21 522.878 1268.14 519.317 1272.59 519.317H1422.83C1427.28 519.317 1430.58 522.88 1430.19 527.273L1429.44 535.753C1429.05 540.146 1425.12 543.709 1420.67 543.709Z" fill="white"/>
<path d="M1417.42 580.299H1267.18C1262.73 580.299 1259.43 576.736 1259.82 572.343L1260.58 563.863C1260.96 559.468 1264.89 555.907 1269.35 555.907H1419.58C1424.04 555.907 1427.33 559.47 1426.94 563.863L1426.19 572.343C1425.8 576.736 1421.88 580.299 1417.42 580.299Z" fill="white"/>
<path opacity="0.1" d="M1375.02 312.241C1374.59 317.115 1370.23 321.064 1365.29 321.064C1360.35 321.064 1356.7 317.115 1357.13 312.241C1357.56 307.368 1361.92 303.418 1366.86 303.418C1371.8 303.418 1375.45 307.368 1375.02 312.241Z" fill="black"/>
<path opacity="0.1" d="M1370.96 312.241C1370.73 314.902 1368.35 317.06 1365.65 317.06C1362.95 317.06 1360.95 314.902 1361.19 312.241C1361.42 309.579 1363.8 307.421 1366.5 307.421C1369.2 307.421 1371.2 309.579 1370.96 312.241Z" fill="black"/>
<g opacity="0.8">
<path d="M1447.72 326.957C1446.27 326.957 1445.2 325.801 1445.32 324.373L1445.74 319.647C1445.87 318.219 1447.15 317.062 1448.59 317.062C1450.04 317.062 1451.11 318.219 1450.99 319.647L1450.57 324.373C1450.44 325.801 1449.16 326.957 1447.72 326.957Z" fill="white"/>
<path d="M1468.68 326.958C1467.23 326.958 1466.16 325.801 1466.29 324.373L1467.27 313.283C1467.4 311.855 1468.67 310.698 1470.12 310.698C1471.57 310.698 1472.64 311.855 1472.51 313.283L1471.53 324.373C1471.4 325.801 1470.13 326.958 1468.68 326.958Z" fill="white"/>
<path d="M1458.2 326.958C1456.75 326.958 1455.68 325.801 1455.81 324.373L1456.51 316.466C1456.63 315.038 1457.91 313.881 1459.36 313.881C1460.81 313.881 1461.88 315.038 1461.75 316.466L1461.05 324.373C1460.92 325.801 1459.65 326.958 1458.2 326.958Z" fill="white"/>
</g>
<g opacity="0.8">
<path d="M1268.24 326.958H1255.08C1254.26 326.958 1253.66 326.303 1253.73 325.493L1254.35 318.523C1254.42 317.714 1255.14 317.059 1255.96 317.059H1269.12C1269.94 317.059 1270.55 317.714 1270.47 318.523L1269.86 325.493C1269.78 326.303 1269.06 326.958 1268.24 326.958Z" fill="white"/>
<path d="M1274.35 325.067C1273.52 325.067 1272.92 324.412 1272.99 323.603L1273.27 320.415C1273.35 319.605 1274.07 318.95 1274.89 318.95C1275.71 318.95 1276.31 319.605 1276.24 320.415L1275.96 323.603C1275.89 324.412 1275.17 325.067 1274.35 325.067Z" fill="white"/>
</g>
<path d="M1395.94 487.967C1422.15 463.213 1424.76 423.939 1401.77 400.244C1378.78 376.55 1338.89 377.409 1312.68 402.162C1286.47 426.915 1283.85 466.19 1306.84 489.884C1329.84 513.579 1369.72 512.72 1395.94 487.967Z" fill="white"/>
<path d="M1354.51 442.668C1337.98 442.668 1324.03 448.871 1322.83 462.352L1321.51 477.313H1381.37L1382.69 462.352C1383.89 448.871 1371.04 442.668 1354.51 442.668Z" fill="#0037F8"/>
<path d="M1355.06 436.507C1362.73 436.507 1366.26 430.373 1366.93 422.805C1367.61 415.238 1365.16 409.104 1357.48 409.104C1349.81 409.104 1346.28 415.238 1345.6 422.805C1344.93 430.373 1347.38 436.507 1355.06 436.507Z" fill="#0037F8"/>
<path d="M1413.81 531.076C1409.73 531.076 1406.28 532.608 1405.99 535.938L1405.66 539.634H1420.45L1420.77 535.938C1421.07 532.608 1417.89 531.076 1413.81 531.076Z" fill="#0037F8" fill-opacity="0.219608"/>
<path d="M1413.95 529.555C1415.84 529.555 1416.72 528.039 1416.88 526.171C1417.05 524.301 1416.44 522.787 1414.55 522.787C1412.65 522.787 1411.78 524.303 1411.61 526.171C1411.45 528.041 1412.05 529.555 1413.95 529.555Z" fill="#0037F8" fill-opacity="0.219608"/>
<path d="M1368.29 616.889H1309.83C1303 616.889 1297.95 611.43 1298.55 604.692C1299.15 597.957 1305.17 592.495 1311.99 592.495H1370.45C1377.28 592.495 1382.33 597.957 1381.73 604.692C1381.13 611.43 1375.12 616.889 1368.29 616.889Z" fill="#0037F8"/>
<path d="M1361.24 752.908H1298.67C1291.46 752.908 1286.12 747.137 1286.75 740.019L1290.74 695.003C1291.37 687.885 1297.73 682.114 1304.95 682.114H1367.51C1374.73 682.114 1380.06 687.885 1379.43 695.003L1375.44 740.019C1374.81 747.137 1368.45 752.908 1361.24 752.908Z" fill="#263238"/>
<g opacity="0.6">
<path d="M1341.94 706.374C1342.32 702.09 1339.11 698.618 1334.77 698.618C1330.42 698.618 1326.6 702.09 1326.22 706.374C1325.99 708.924 1327.06 711.168 1328.86 712.581L1327.48 728.081C1327.26 730.626 1329.16 732.688 1331.74 732.688C1334.32 732.688 1336.59 730.626 1336.82 728.081L1338.2 712.581C1340.25 711.168 1341.71 708.926 1341.94 706.374Z" fill="white"/>
</g>
<path d="M1368.07 691.484H1360.01L1361.98 669.211C1363.17 655.826 1353.1 644.938 1339.53 644.938C1325.96 644.938 1313.96 655.826 1312.77 669.211L1310.8 691.484H1302.73L1304.71 669.211C1306.28 651.441 1322.22 636.984 1340.23 636.984C1358.25 636.984 1371.62 651.441 1370.04 669.211L1368.07 691.484Z" fill="#263238"/>
<path d="M1414.8 565.186L1414.99 563.05C1415.18 560.865 1413.54 559.089 1411.32 559.089C1409.11 559.089 1407.15 560.866 1406.96 563.05L1406.77 565.186C1405.88 565.186 1405.11 565.894 1405.03 566.766L1404.52 572.447C1404.45 573.319 1405.1 574.026 1405.99 574.026H1414.01C1414.9 574.026 1415.68 573.319 1415.75 572.447L1416.26 566.766C1416.34 565.894 1415.68 565.186 1414.8 565.186ZM1411.24 560.065C1412.91 560.065 1414.14 561.403 1414 563.048L1413.81 565.185H1407.76L1407.95 563.048C1408.1 561.403 1409.57 560.065 1411.24 560.065Z" fill="#263238"/>
<path d="M1293.98 567.462L1291.18 566.891C1290.84 566.824 1290.67 566.48 1290.81 566.157L1291.98 563.436C1292.23 562.851 1291.51 562.419 1291.05 562.882L1288.94 565.034C1288.69 565.29 1288.28 565.29 1288.08 565.034L1286.34 562.882C1285.97 562.421 1285.17 562.851 1285.32 563.436L1286 566.157C1286.09 566.48 1285.85 566.824 1285.51 566.891L1282.61 567.462C1281.98 567.585 1281.91 568.447 1282.51 568.57L1285.31 569.141C1285.64 569.208 1285.81 569.552 1285.67 569.875L1284.51 572.596C1284.26 573.181 1284.98 573.613 1285.43 573.15L1287.55 570.998C1287.8 570.742 1288.2 570.742 1288.41 570.998L1290.14 573.15C1290.52 573.613 1291.31 573.181 1291.17 572.596L1290.48 569.875C1290.4 569.552 1290.63 569.208 1290.98 569.141L1293.88 568.57C1294.5 568.447 1294.58 567.583 1293.98 567.462Z" fill="#0037F8"/>
<path d="M1312.41 567.462L1309.61 566.891C1309.28 566.824 1309.11 566.48 1309.25 566.157L1310.41 563.436C1310.66 562.851 1309.94 562.419 1309.49 562.882L1307.37 565.034C1307.12 565.29 1306.72 565.29 1306.51 565.034L1304.78 562.882C1304.4 562.421 1303.61 562.851 1303.75 563.436L1304.44 566.157C1304.52 566.48 1304.29 566.824 1303.94 566.891L1301.04 567.462C1300.42 567.585 1300.34 568.447 1300.94 568.57L1303.74 569.141C1304.07 569.208 1304.24 569.552 1304.11 569.875L1302.94 572.596C1302.69 573.181 1303.41 573.613 1303.86 573.15L1305.98 570.998C1306.23 570.742 1306.63 570.742 1306.84 570.998L1308.57 573.15C1308.95 573.613 1309.74 573.181 1309.6 572.596L1308.91 569.875C1308.83 569.552 1309.07 569.208 1309.41 569.141L1312.31 568.57C1312.94 568.447 1313.01 567.583 1312.41 567.462Z" fill="#0037F8"/>
<path d="M1330.84 567.462L1328.04 566.891C1327.71 566.824 1327.54 566.48 1327.68 566.157L1328.84 563.436C1329.1 562.851 1328.38 562.419 1327.92 562.882L1325.8 565.034C1325.55 565.29 1325.15 565.29 1324.94 565.034L1323.21 562.882C1322.84 562.421 1322.04 562.851 1322.19 563.436L1322.87 566.157C1322.95 566.48 1322.72 566.824 1322.38 566.891L1319.47 567.462C1318.85 567.585 1318.77 568.447 1319.37 568.57L1322.17 569.141C1322.51 569.208 1322.68 569.552 1322.54 569.875L1321.37 572.596C1321.12 573.181 1321.84 573.613 1322.3 573.15L1324.41 570.998C1324.66 570.742 1325.07 570.742 1325.27 570.998L1327.01 573.15C1327.38 573.613 1328.18 573.181 1328.03 572.596L1327.35 569.875C1327.26 569.552 1327.5 569.208 1327.84 569.141L1330.74 568.57C1331.37 568.447 1331.45 567.583 1330.84 567.462Z" fill="#0037F8"/>
<path d="M1349.28 567.462L1346.48 566.891C1346.15 566.824 1345.98 566.48 1346.11 566.157L1347.28 563.436C1347.53 562.851 1346.81 562.419 1346.36 562.882L1344.24 565.034C1343.99 565.29 1343.59 565.29 1343.38 565.034L1341.65 562.882C1341.27 562.421 1340.48 562.851 1340.62 563.436L1341.31 566.157C1341.39 566.48 1341.16 566.824 1340.81 566.891L1337.91 567.462C1337.29 567.585 1337.21 568.447 1337.81 568.57L1340.61 569.141C1340.94 569.208 1341.12 569.552 1340.98 569.875L1339.81 572.596C1339.56 573.181 1340.28 573.613 1340.73 573.15L1342.85 570.998C1343.1 570.742 1343.51 570.742 1343.71 570.998L1345.45 573.15C1345.82 573.613 1346.61 573.181 1346.47 572.596L1345.78 569.875C1345.7 569.552 1345.93 569.208 1346.28 569.141L1349.18 568.57C1349.8 568.447 1349.88 567.583 1349.28 567.462Z" fill="#0037F8"/>
<path d="M1367.71 567.462L1364.91 566.891C1364.58 566.824 1364.41 566.48 1364.55 566.157L1365.71 563.436C1365.97 562.851 1365.25 562.419 1364.79 562.882L1362.67 565.034C1362.42 565.29 1362.02 565.29 1361.81 565.034L1360.08 562.882C1359.71 562.421 1358.91 562.851 1359.06 563.436L1359.74 566.157C1359.82 566.48 1359.59 566.824 1359.25 566.891L1356.34 567.462C1355.72 567.585 1355.64 568.447 1356.24 568.57L1359.04 569.141C1359.38 569.208 1359.55 569.552 1359.41 569.875L1358.24 572.596C1357.99 573.181 1358.71 573.613 1359.17 573.15L1361.28 570.998C1361.53 570.742 1361.94 570.742 1362.14 570.998L1363.88 573.15C1364.25 573.613 1365.05 573.181 1364.9 572.596L1364.22 569.875C1364.13 569.552 1364.37 569.208 1364.71 569.141L1367.61 568.57C1368.24 568.447 1368.32 567.583 1367.71 567.462Z" fill="#0037F8"/>
<path d="M1386.15 567.462L1383.35 566.891C1383.02 566.824 1382.84 566.48 1382.98 566.157L1384.15 563.436C1384.4 562.851 1383.68 562.419 1383.23 562.882L1381.11 565.034C1380.86 565.29 1380.46 565.29 1380.25 565.034L1378.51 562.882C1378.14 562.421 1377.34 562.851 1377.49 563.436L1378.17 566.157C1378.26 566.48 1378.02 566.824 1377.68 566.891L1374.78 567.462C1374.15 567.585 1374.08 568.447 1374.68 568.57L1377.48 569.141C1377.81 569.208 1377.98 569.552 1377.84 569.875L1376.68 572.596C1376.43 573.181 1377.15 573.613 1377.6 573.15L1379.72 570.998C1379.97 570.742 1380.37 570.742 1380.58 570.998L1382.31 573.15C1382.68 573.613 1383.48 573.181 1383.33 572.596L1382.65 569.875C1382.57 569.552 1382.8 569.208 1383.15 569.141L1386.05 568.57C1386.67 568.447 1386.75 567.583 1386.15 567.462Z" fill="#0037F8"/>
<path d="M1341.71 527.671H1307.1C1304.95 527.671 1303.06 529.391 1302.87 531.513C1302.68 533.634 1304.27 535.354 1306.42 535.354H1341.03C1343.18 535.354 1345.08 533.634 1345.27 531.513C1345.46 529.391 1343.86 527.671 1341.71 527.671Z" fill="#0037F8"/>
<path d="M1376.85 527.671H1356.77C1354.62 527.671 1352.72 529.391 1352.53 531.513C1352.34 533.634 1353.93 535.354 1356.08 535.354H1376.17C1378.32 535.354 1380.21 533.634 1380.4 531.513C1380.59 529.391 1379 527.671 1376.85 527.671Z" fill="#0037F8"/>
<path d="M1403.36 701.878C1390.31 707.019 1378.87 714.517 1371.04 723.044C1366.45 719.189 1359.92 716.512 1352.1 715.288L1351.18 715.144L1350.78 719.677L1351.29 719.867C1359.02 722.746 1365.3 727.854 1369.47 734.636L1370.13 735.702L1370.85 734.559C1378.88 721.883 1390.58 711.264 1403.8 704.657L1404.25 704.432L1404.52 701.419L1403.36 701.878Z" fill="#0037F8"/>
<path opacity="0.2" d="M1229.3 323.513C1226.86 327.735 1225.26 332.445 1224.82 337.436L1195.81 664.551H1285.56L1303.6 596.344L1297.66 528.137L1315.7 459.929L1309.76 391.722L1327.8 323.515H1229.3V323.513Z" fill="black"/>
<path d="M1301.97 372.506L1320 304.296H1093.01L1074.98 372.506L1080.92 440.713L1062.88 508.92L1068.82 577.13L1050.78 645.337H1277.77L1295.81 577.13L1289.87 508.92L1307.9 440.713L1301.97 372.506Z" fill="#263238"/>
<path opacity="0.7" d="M1301.97 372.506L1320 304.296H1093.01L1074.98 372.506L1080.92 440.713L1062.88 508.92L1068.82 577.13L1050.78 645.337H1277.77L1295.81 577.13L1289.87 508.92L1307.9 440.713L1301.97 372.506Z" fill="white"/>
<path opacity="0.5" d="M1301.97 372.506H1074.98L1093.01 304.296H1320L1301.97 372.506Z" fill="white"/>
<path opacity="0.5" d="M1289.87 508.92H1062.88L1080.92 440.712H1307.91L1289.87 508.92Z" fill="white"/>
<path opacity="0.5" d="M1277.77 645.337H1050.78L1068.82 577.13H1295.81L1277.77 645.337Z" fill="white"/>
<path opacity="0.2" d="M1271.59 401.008C1269.64 401.61 1267.15 401.971 1264.43 401.971C1260.42 401.971 1256.9 401.189 1254.89 400.011C1254.34 399.686 1253.74 399.525 1253.14 399.525C1252.58 399.525 1252.02 399.681 1251.5 399.959C1251.46 399.98 1251.42 399.988 1251.38 400.011C1251.36 400.025 1251.33 400.034 1251.31 400.048C1250.57 400.474 1249.63 400.849 1248.54 401.151C1246.67 401.668 1244.36 401.973 1241.85 401.973C1241.17 401.973 1240.5 401.95 1239.86 401.908C1237.91 401.777 1236.14 401.462 1234.68 401.012C1234.43 400.934 1234.17 400.887 1233.92 400.87C1232.15 400.755 1230.56 402.092 1230.56 403.941V406.024H1142.34C1135.51 406.024 1129.97 411.484 1129.97 418.221V430.513C1129.97 437.248 1135.51 442.71 1142.34 442.71H1242.71C1242.93 442.71 1243.15 442.688 1243.37 442.677C1244.45 443.561 1245.58 444.443 1246.77 445.337C1248.2 446.405 1249.71 447.489 1251.29 448.619C1252.38 449.405 1253.89 449.405 1254.99 448.619C1267.61 439.589 1275.72 433.361 1275.72 416.248V403.943C1275.71 401.827 1273.64 400.378 1271.59 401.008Z" fill="black"/>
<path d="M1240.79 435.935H1140.42C1133.59 435.935 1128.05 430.476 1128.05 423.738V411.447C1128.05 404.712 1133.59 399.25 1140.42 399.25H1240.79C1247.62 399.25 1253.16 404.71 1253.16 411.447V423.738C1253.16 430.474 1247.62 435.935 1240.79 435.935Z" fill="#2183B4"/>
<path d="M1262.51 395.2C1258.5 395.2 1254.98 394.418 1252.98 393.24C1251.88 392.592 1250.57 392.592 1249.47 393.24C1247.46 394.418 1243.94 395.2 1239.93 395.2C1237.21 395.2 1234.72 394.838 1232.77 394.239C1230.72 393.609 1228.65 395.056 1228.65 397.17V409.474C1228.65 426.587 1236.75 432.815 1249.37 441.845C1250.47 442.631 1251.98 442.631 1253.08 441.845C1265.7 432.815 1273.8 426.587 1273.8 409.474V397.17C1273.8 395.056 1271.73 393.609 1269.68 394.239C1267.73 394.838 1265.23 395.2 1262.51 395.2Z" fill="#263238"/>
<path opacity="0.3" d="M1262.51 395.2C1258.5 395.2 1254.98 394.418 1252.98 393.24C1251.88 392.592 1250.57 392.592 1249.47 393.24C1247.46 394.418 1243.94 395.2 1239.93 395.2C1237.21 395.2 1234.72 394.838 1232.77 394.239C1230.72 393.609 1228.65 395.056 1228.65 397.17V409.474C1228.65 426.587 1236.75 432.815 1249.37 441.845C1250.47 442.631 1251.98 442.631 1253.08 441.845C1265.7 432.815 1273.8 426.587 1273.8 409.474V397.17C1273.8 395.056 1271.73 393.609 1269.68 394.239C1267.73 394.838 1265.23 395.2 1262.51 395.2Z" fill="white"/>
<path opacity="0.2" d="M1249.47 393.24C1247.46 394.418 1243.94 395.2 1239.93 395.2C1237.21 395.2 1234.72 394.839 1232.77 394.239C1230.72 393.609 1228.65 395.056 1228.65 397.168V409.475C1228.65 426.588 1236.75 432.816 1249.37 441.846C1249.92 442.238 1250.57 442.436 1251.22 442.436V392.754C1250.62 392.754 1250.02 392.915 1249.47 393.24Z" fill="white"/>
<path d="M1269.31 406.114C1261.16 409.443 1254.18 414.299 1249.6 419.822C1246.4 417.326 1242.02 415.592 1236.88 414.799L1236.28 414.706V417.643L1236.62 417.766C1241.79 419.63 1246.15 422.939 1249.25 427.33L1249.73 428.02L1250.13 427.28C1254.61 419.07 1261.58 412.193 1269.76 407.915L1270.04 407.769V405.818L1269.31 406.114Z" fill="#0037F8"/>
<path d="M1316 323.477H1307.39C1302.61 323.477 1299.08 319.658 1299.49 314.946L1300.25 306.45C1300.67 301.738 1304.88 297.92 1309.65 297.92H1318.27C1323.04 297.92 1326.57 301.74 1326.16 306.45L1325.4 314.946C1324.98 319.658 1320.77 323.477 1316 323.477Z" fill="#263238"/>
<path d="M1319.58 306.433L1317.71 304.411L1313 308.677L1309.06 304.411L1306.83 306.433L1310.77 310.699L1306.07 314.965L1307.94 316.987L1312.64 312.721L1316.59 316.987L1318.82 314.965L1314.87 310.699L1319.58 306.433Z" fill="white"/>
<path d="M1123.57 396.769C1128.57 402.124 1133.34 407.672 1138.05 413.272C1142.76 418.866 1147.36 424.56 1151.91 430.304C1152.1 430.554 1152.02 430.452 1152.07 430.527C1152.09 430.56 1152.1 430.614 1152.12 430.641C1152.17 430.696 1152.2 430.789 1152.26 430.839C1152.35 430.981 1152.48 431.083 1152.61 431.217C1152.89 431.461 1153.27 431.648 1153.69 431.725C1153.9 431.755 1154.12 431.786 1154.34 431.763C1154.46 431.778 1154.57 431.742 1154.69 431.738C1154.76 431.74 1154.81 431.705 1154.87 431.698C1154.97 431.655 1154.91 431.742 1155.18 431.584L1160.06 428.975C1166.61 425.556 1173.2 422.214 1180.03 419.214L1185.73 426.182C1180.23 431.173 1174.51 437.415 1168.73 441.988L1164.37 445.372C1164.26 445.472 1163.79 445.776 1163.49 445.97C1163.16 446.183 1162.83 446.414 1162.47 446.602C1161.76 446.987 1161.05 447.371 1160.29 447.667C1158.8 448.305 1157.2 448.711 1155.58 448.957C1152.33 449.433 1148.96 449.11 1145.81 447.998C1144.24 447.44 1142.72 446.697 1141.33 445.747C1140.62 445.294 1139.97 444.761 1139.33 444.225C1139 443.958 1138.71 443.66 1138.41 443.37L1137.63 442.596C1132.48 437.38 1127.38 432.115 1122.4 426.749C1117.41 421.388 1112.48 415.978 1107.78 410.374L1123.57 396.769Z" fill="#B55B52"/>
<path d="M1177.37 423.457L1181.91 409.069L1193.87 414.946C1193.87 414.946 1192.13 425.444 1183.42 427.264L1177.37 423.457Z" fill="#B55B52"/>
<path d="M1186.71 405.079L1197.49 408.007L1193.87 414.945L1181.92 409.068L1186.71 405.079Z" fill="#B55B52"/>
<path d="M1060.7 400.69C1059.4 406.803 1057.81 412.847 1056.14 418.873C1054.48 424.902 1052.67 430.894 1050.79 436.868L1050.09 439.109L1049.74 440.229C1049.67 440.473 1049.62 440.535 1049.55 440.698C1049.34 441.265 1049.21 441.88 1049.18 442.526C1049.15 443.806 1049.46 445.23 1050.31 446.467C1050.38 446.667 1051.05 447.363 1051.57 447.924L1053.19 449.657L1056.38 453.18C1058.48 455.557 1060.57 457.942 1062.56 460.45L1055.77 468.202C1052.97 466.628 1050.27 464.931 1047.58 463.226L1043.58 460.626L1041.61 459.298C1040.94 458.837 1040.4 458.528 1039.32 457.65C1035.62 454.55 1032.85 450.149 1031.83 445.262C1031.32 442.824 1031.19 440.281 1031.48 437.764C1031.55 437.16 1031.67 436.457 1031.76 435.94L1031.97 434.785L1032.38 432.475C1033.47 426.312 1034.64 420.167 1035.95 414.056C1037.26 407.944 1038.65 401.851 1040.32 395.826L1060.7 400.69Z" fill="#B55B52"/>
<path d="M1055.89 459.901L1063.93 455.847L1067.47 469.324C1067.47 469.324 1061.02 471.762 1056.03 468.63L1055.89 459.901Z" fill="#B55B52"/>
<path d="M1075.03 451.536L1075.4 463.898L1066.42 469.688L1063.31 456.107L1075.03 451.536Z" fill="#B55B52"/>
<path d="M1101.31 337.149C1101.51 338.102 1102.18 338.77 1102.81 338.644C1103.44 338.517 1103.79 337.642 1103.59 336.689C1103.4 335.736 1102.73 335.067 1102.1 335.194C1101.47 335.321 1101.11 336.195 1101.31 337.149Z" fill="#263238"/>
<path d="M1102.09 338.787C1102.09 338.787 1105.41 343.841 1108.38 346.007C1106.99 347.923 1103.94 347.786 1103.94 347.786L1102.09 338.787Z" fill="#A02724"/>
<path d="M1096.68 332.567C1096.54 332.567 1096.4 332.517 1096.29 332.415C1096.06 332.202 1096.04 331.841 1096.26 331.608C1098.43 329.289 1101.07 329.702 1101.18 329.719C1101.5 329.773 1101.71 330.067 1101.66 330.378C1101.6 330.688 1101.3 330.895 1100.99 330.845C1100.9 330.832 1098.84 330.534 1097.11 332.383C1097 332.506 1096.84 332.567 1096.68 332.567Z" fill="#263238"/>
<path d="M1073.22 350.545C1075.37 359.36 1077.51 375.512 1069.84 381.392C1069.84 381.392 1072.84 390.334 1093.21 390.334C1115.61 390.334 1103.91 384.575 1103.91 384.575C1091.69 382.228 1092 371.753 1094.13 364.904L1073.22 350.545Z" fill="#B55B52"/>
<path d="M1067.46 383.026C1066.12 380.576 1064.65 377.774 1067.69 376.896C1071.04 375.93 1092.52 374.138 1098.84 375.953C1096.9 379.356 1100.18 383.539 1100.18 383.539L1067.46 383.026Z" fill="#263238"/>
<path d="M1085.25 795.38H1099.3L1100.7 767.475H1086.65L1085.25 795.38Z" fill="#B55B52"/>
<path d="M996.061 791.537L1010.29 792.279L1018.95 764.789L1004.71 764.045L996.061 791.537Z" fill="#B55B52"/>
<path d="M1009.86 791.168L996.448 788.303C995.961 788.199 995.465 788.443 995.256 788.891L990.6 798.855C990.117 799.889 990.756 801.102 991.888 801.323C996.587 802.243 998.922 802.458 1004.82 803.717C1008.45 804.492 1016.64 806.461 1021.65 807.532C1026.55 808.579 1028.39 803.854 1026.43 802.973C1017.67 799.024 1014.01 795.546 1011.64 792.306C1011.21 791.724 1010.58 791.322 1009.86 791.168Z" fill="#263238"/>
<path d="M1098.56 793.986H1085.22C1084.72 793.986 1084.29 794.328 1084.18 794.808L1081.77 805.518C1081.52 806.629 1082.37 807.68 1083.52 807.661C1088.33 807.58 1095.29 807.301 1101.33 807.301C1108.41 807.301 1114.51 807.682 1122.81 807.682C1127.82 807.682 1129.21 802.682 1127.11 802.228C1117.56 800.166 1109.76 799.945 1101.5 794.924C1100.6 794.378 1099.61 793.986 1098.56 793.986Z" fill="#263238"/>
<path d="M1044.39 385.466C1033.79 390.441 1030.9 420.603 1030.9 420.603L1057.14 432.563C1057.14 432.563 1063.66 423.099 1064.15 408.217C1064.68 392.626 1055.24 380.379 1044.39 385.466Z" fill="#263238"/>
<path opacity="0.4" d="M1058.63 404.065C1053.89 411.32 1054.34 422.545 1055.98 432.03L1057.14 432.566C1057.14 432.566 1063.66 423.09 1064.16 408.212C1064.19 407.282 1064.18 406.358 1064.15 405.459L1058.63 404.065Z" fill="black"/>
<path d="M1117.62 384.738C1117.62 384.738 1130.62 399.223 1118.34 488.885C1098.65 488.885 1062.59 488.885 1053.01 488.885C1052.56 478.992 1058.86 430.732 1049.19 384.117C1049.19 384.117 1060.39 381.899 1071.06 381.392C1079.4 380.996 1091.49 380.733 1098.83 381.392C1108.5 382.264 1117.62 384.738 1117.62 384.738Z" fill="#407BFF"/>
<path opacity="0.6" d="M1117.62 384.738C1117.62 384.738 1130.62 399.223 1118.34 488.885C1098.65 488.885 1062.59 488.885 1053.01 488.885C1052.56 478.992 1058.86 430.732 1049.19 384.117C1049.19 384.117 1060.39 381.899 1071.06 381.392C1079.4 380.996 1091.49 380.733 1098.83 381.392C1108.5 382.264 1117.62 384.738 1117.62 384.738Z" fill="#FAFAFA"/>
<path opacity="0.2" d="M1123.33 412.141L1123.08 411.928L1110.08 405.079C1108.76 424.815 1117.71 437.187 1123.03 442.599C1123.76 429.954 1123.74 419.98 1123.33 412.141Z" fill="black"/>
<path opacity="0.2" d="M1100.7 767.483L1099.98 781.867H1085.92L1086.64 767.483H1100.7Z" fill="black"/>
<path opacity="0.2" d="M1004.71 764.053L1018.95 764.796L1014.48 778.965L1000.24 778.223L1004.71 764.053Z" fill="black"/>
<path d="M1068.69 341.585C1071.83 353.136 1073.07 360.054 1080.3 364.857C1091.17 372.081 1104.7 363.79 1105.12 351.547C1105.5 340.528 1100.31 323.49 1087.74 321.161C1075.36 318.868 1065.55 330.033 1068.69 341.585Z" fill="#B55B52"/>
<path d="M1095.16 488.884C1095.16 488.884 1081.3 580.967 1073.69 615.466C1065.36 653.243 1020.68 778.231 1020.68 778.231L998.812 773.561C998.812 773.561 1026.83 671.704 1033.82 618.89C1036.55 598.28 1039.85 565.057 1044.02 537.358C1048.05 510.532 1053.01 488.884 1053.01 488.884H1095.16Z" fill="#263238"/>
<path d="M1025.91 771.028C1026 771.047 1021.83 778.828 1021.83 778.828L997.235 773.574L999.31 766.279L1025.91 771.028Z" fill="#407BFF"/>
<path opacity="0.6" d="M1025.91 771.028C1026 771.047 1021.83 778.828 1021.83 778.828L997.235 773.574L999.31 766.279L1025.91 771.028Z" fill="white"/>
<path opacity="0.6" d="M1086.4 521.692C1070.37 524.792 1072.07 583.756 1074 614.084C1078.62 592.648 1085.39 551.396 1090.01 522.119C1088.95 521.594 1087.75 521.431 1086.4 521.692Z" fill="black"/>
<path d="M1118.34 488.884C1118.34 488.884 1124.86 578.974 1123.53 615.719C1122.15 653.938 1103.78 779.082 1103.78 779.082H1083.09C1083.09 779.082 1082.33 656.171 1081.41 618.636C1080.4 577.715 1075.4 488.884 1075.4 488.884H1118.34Z" fill="#263238"/>
<path d="M1107.76 770.951C1107.85 770.951 1106.59 779.426 1106.59 779.426H1081.42L1080.74 771.862L1107.76 770.951Z" fill="#407BFF"/>
<path opacity="0.6" d="M1107.76 770.951C1107.85 770.951 1106.59 779.426 1106.59 779.426H1081.42L1080.74 771.862L1107.76 770.951Z" fill="white"/>
<path d="M1109.99 401.614C1109.99 425.791 1123.04 435.746 1123.04 435.746L1144.23 415.303C1144.23 415.303 1137.03 403.052 1127.11 391.806C1114.87 377.912 1109.99 386.068 1109.99 401.614Z" fill="#263238"/>
<path opacity="0.2" d="M1104.38 355.923C1103.84 357.405 1102.43 359.917 1098.88 360.918C1093.71 362.378 1093.64 366.704 1093.64 366.704L1093.71 366.785C1098.64 365.176 1102.75 361.152 1104.38 355.923Z" fill="black"/>
<path d="M1098.88 318.626C1103.25 313.194 1096.53 312.934 1096.53 312.934C1098.28 306.449 1090.42 309.94 1090.42 309.94C1085.7 303.526 1083.04 311.332 1083.04 311.332C1078.15 305.897 1077.25 314.779 1077.25 314.779C1072.34 307.886 1069.84 317.829 1069.84 317.829C1065.32 310.671 1062.56 319.997 1062.56 319.997C1053.23 316.701 1057.66 326.267 1057.66 326.267C1049.7 326.488 1056.09 332.567 1056.09 332.567C1046.54 332.59 1054.96 337.98 1054.96 337.98C1047.38 342.884 1056.89 344.204 1056.89 344.204C1050.71 353.742 1061.33 350.204 1061.33 350.204C1057.02 359.643 1066.56 355.485 1066.56 355.485C1065.94 364.594 1071.28 362.115 1073.84 360.428C1074.33 362.263 1075.26 364.206 1076.97 364.427C1080.3 364.855 1080.95 358.66 1080.95 358.66C1080.95 358.66 1084.03 361.029 1086.62 359.745C1089.21 358.462 1088.24 355.212 1088.24 355.212C1088.24 355.212 1090.22 356.671 1092.03 355.279C1093.14 354.428 1093.15 348.311 1091.73 346.161L1096.8 344.202C1096.8 344.202 1100.57 343.68 1098.88 338.785C1097.21 333.893 1098.63 330.028 1098.63 330.028C1104.35 327.382 1099.66 324.199 1099.66 324.199C1106.28 319.97 1098.88 318.626 1098.88 318.626Z" fill="#263238"/>
<path d="M1088.61 342.07C1089.41 345.102 1091.43 347.708 1093.54 349.259C1096.72 351.592 1099.09 349.296 1098.87 345.748C1098.67 342.554 1096.77 337.492 1093.26 336.545C1089.81 335.611 1087.7 338.603 1088.61 342.07Z" fill="#B55B52"/>
<defs>
<linearGradient id="paint0_linear_195_571" x1="1364" y1="485.5" x2="-0.000175193" y2="469" gradientUnits="userSpaceOnUse">
<stop/>
<stop offset="1" stop-color="#215878" stop-opacity="0.62"/>
</linearGradient>
</defs>
</svg>
