<svg width="20" viewBox="0 0 68 74" fill="none" xmlns="http://www.w3.org/2000/svg">
<path d="M7.78125 35.7812C7.78125 28.5625 7.90625 22.1562 8.15625 16.5625L1.82812 15.5781C1.42188 14.4219 1.10938 13.1406 0.890625 11.7344C0.671875 10.3281 0.5625 8.96875 0.5625 7.65625C0.5625 6.65625 0.640625 5.5625 0.796875 4.375C4.89062 2.9375 10.2969 1.90625 17.0156 1.28125C23.7344 0.65625 30.2969 0.34375 36.7031 0.34375C41.4844 0.34375 45.5938 0.71875 49.0312 1.46875C52.4688 2.21875 55.3438 3.92187 57.6562 6.57812C60 9.20312 61.1719 13.1406 61.1719 18.3906C61.1719 20.5469 60.8281 22.9375 60.1406 25.5625C59.4531 28.1562 58.5 30.75 57.2812 33.3438C56.1562 35.7188 54.875 37.9844 53.4375 40.1406C52.0312 42.2656 50.5625 44.0938 49.0312 45.625C49.9375 48 50.875 50.1719 51.8438 52.1406C52.8125 54.0781 54.2969 56.4375 56.2969 59.2188L62.8594 56.4531C65.2969 58.5469 66.7188 61.3281 67.125 64.7969C67.125 64.9844 66.375 65.875 64.875 67.4688C63.4062 69.0625 61.4844 70.5469 59.1094 71.9219C56.7344 73.2656 54.0625 73.9375 51.0938 73.9375C48.7812 73.9375 46.7031 73.5312 44.8594 72.7188C43.0469 71.9062 41.5469 70.4844 40.3594 68.4531C39.2031 66.4531 38.2812 64.0781 37.5938 61.3281C36.9062 58.5781 36.4219 55.8594 36.1406 53.1719L25.4531 52.7031C25.7344 55.1406 26.0938 57.6562 26.5312 60.25C26.9688 62.8125 27.2344 64.3594 27.3281 64.8906C27.8594 67.9844 28.2031 70.0938 28.3594 71.2188C26.9219 72.0938 25.1719 72.7656 23.1094 73.2344C21.0781 73.7031 19 73.9375 16.875 73.9375C14.4375 73.9375 12.0781 73.6094 9.79688 72.9531C9.10938 70.2031 8.59375 65.3906 8.25 58.5156C7.9375 51.6094 7.78125 44.0312 7.78125 35.7812ZM36.9375 41.4062C38.0312 38.2812 38.8906 34.8906 39.5156 31.2344C40.1719 27.5469 40.7656 23.1562 41.2969 18.0625C40.3906 17.7188 39.2031 17.4531 37.7344 17.2656C36.2656 17.0781 34.8438 16.9844 33.4688 16.9844C30.3438 16.9844 28 17.0625 26.4375 17.2188C26.0938 28.9688 25.7188 37.2969 25.3125 42.2031L36.9375 41.4062Z" fill="#326DDF" fill-opacity="0.66"/>
</svg>
