<svg width="40" height="40" viewBox="0 0 40 40" fill="none" xmlns="http://www.w3.org/2000/svg">
<path d="M14.9519 26.7221L14.9519 26.7221C16.3883 27.7867 18.1274 28.4065 20.0002 28.4065C21.873 28.4065 23.6119 27.7867 25.0484 26.7221L25.0485 26.722C25.4456 26.4276 26.0063 26.5108 26.3008 26.9082L26.3009 26.9083C26.5953 27.3054 26.512 27.8662 26.1148 28.1605L26.1147 28.1606C24.3869 29.4413 22.2778 30.1972 20.0002 30.1972C17.7225 30.1972 15.6134 29.4413 13.8856 28.1606L13.8855 28.1606C13.4883 27.8662 13.405 27.3054 13.6994 26.9082L13.6995 26.9082C13.9939 26.5109 14.5546 26.4276 14.9519 26.7221Z" fill="#6C6C6C" stroke="#6C6C6C"/>
<path d="M20 0C18.651 0 17.4203 0.370437 16.0731 0.999256C14.769 1.60795 13.2609 2.50631 11.371 3.63218L11.3708 3.63224L8.66274 5.24545C6.58067 6.48569 4.92158 7.47399 3.6654 8.41905C2.36864 9.39466 1.39533 10.3993 0.761065 11.7223C0.126498 13.0459 -0.0455022 14.4313 0.00966057 16.0481C0.0630745 17.613 0.336842 19.5157 0.680116 21.9012L1.22404 25.6813C1.6657 28.7509 2.01615 31.1866 2.53976 33.0832C3.0795 35.038 3.84532 36.5896 5.22726 37.7795C6.60808 38.9686 8.26017 39.5003 10.2816 39.7539C12.2447 40 14.7215 40 17.8461 40H22.1539C25.2785 40 27.7553 40 29.7185 39.7539C31.7399 39.5003 33.392 38.9686 34.7728 37.7795C36.1546 36.5896 36.9205 35.038 37.4603 33.0832C37.9838 31.1868 38.3343 28.7509 38.776 25.6813L39.3198 21.9012C39.6632 19.5155 39.9369 17.613 39.9903 16.0481C40.0456 14.4313 39.8735 13.0459 39.2389 11.7223C38.6046 10.3993 37.6314 9.39466 36.3347 8.41905C35.0788 7.47418 33.42 6.4861 31.3386 5.24622L31.3373 5.24545L28.6292 3.63224L28.6289 3.63204C26.739 2.50624 25.231 1.60793 23.9269 0.999256C22.5797 0.370437 21.349 0 20 0ZM12.736 6.06737C14.7034 4.89537 16.0916 4.07034 17.2534 3.52806C18.3866 2.99913 19.2015 2.7907 20 2.7907C20.7987 2.7907 21.6134 2.99913 22.7466 3.52806C23.9085 4.07034 25.2966 4.89537 27.264 6.06737L29.8406 7.60214C32.0067 8.89252 33.5352 9.80528 34.6569 10.6491C35.7516 11.4728 36.3512 12.1543 36.7224 12.9287C37.0934 13.7024 37.2476 14.5923 37.2013 15.9529C37.1537 17.3479 36.9034 19.1001 36.5462 21.5834L36.0275 25.1877C35.5689 28.3751 35.2411 30.6348 34.7702 32.3405C34.3099 34.0073 33.7561 34.9723 32.9518 35.6647C32.1464 36.3583 31.1025 36.7678 29.3712 36.9849C27.6019 37.2067 25.3001 37.2093 22.0579 37.2093H17.9421C14.7 37.2093 12.3982 37.2067 10.6288 36.9849C8.8976 36.7678 7.85356 36.3583 7.04821 35.6647C6.24398 34.9723 5.69001 34.0073 5.22981 32.3405C4.7589 30.6348 4.43107 28.3751 3.97247 25.1877L3.45383 21.5833C3.09651 19.1001 2.84635 17.3479 2.79874 15.9529C2.75232 14.5923 2.90659 13.7024 3.27753 12.9287C3.64877 12.1543 4.24832 11.4728 5.34315 10.6491C6.46478 9.80528 7.99336 8.89252 10.1595 7.60214L12.736 6.06737Z" fill="#6C6C6C"/>
<path d="M20 0C18.651 0 17.4203 0.370437 16.0731 0.999256C14.769 1.60795 13.2609 2.50631 11.371 3.63218L11.3708 3.63224L8.66274 5.24545C6.58067 6.48569 4.92158 7.47399 3.6654 8.41905C2.36864 9.39466 1.39533 10.3993 0.761065 11.7223C0.126498 13.0459 -0.0455022 14.4313 0.00966057 16.0481C0.0630745 17.613 0.336842 19.5157 0.680116 21.9012L1.22404 25.6813C1.6657 28.7509 2.01615 31.1866 2.53976 33.0832C3.0795 35.038 3.84532 36.5896 5.22726 37.7795C6.60808 38.9686 8.26017 39.5003 10.2816 39.7539C12.2447 40 14.7215 40 17.8461 40H22.1539C25.2785 40 27.7553 40 29.7185 39.7539C31.7399 39.5003 33.392 38.9686 34.7728 37.7795C36.1546 36.5896 36.9205 35.038 37.4603 33.0832C37.9838 31.1868 38.3343 28.7509 38.776 25.6813L39.3198 21.9012C39.6632 19.5155 39.9369 17.613 39.9903 16.0481C40.0456 14.4313 39.8735 13.0459 39.2389 11.7223C38.6046 10.3993 37.6314 9.39466 36.3347 8.41905C35.0788 7.47418 33.42 6.4861 31.3386 5.24622L31.3373 5.24545L28.6292 3.63224L28.6289 3.63204C26.739 2.50624 25.231 1.60793 23.9269 0.999256C22.5797 0.370437 21.349 0 20 0ZM12.736 6.06737C14.7034 4.89537 16.0916 4.07034 17.2534 3.52806C18.3866 2.99913 19.2015 2.7907 20 2.7907C20.7987 2.7907 21.6134 2.99913 22.7466 3.52806C23.9085 4.07034 25.2966 4.89537 27.264 6.06737L29.8406 7.60214C32.0067 8.89252 33.5352 9.80528 34.6569 10.6491C35.7516 11.4728 36.3512 12.1543 36.7224 12.9287C37.0934 13.7024 37.2476 14.5923 37.2013 15.9529C37.1537 17.3479 36.9034 19.1001 36.5462 21.5834L36.0275 25.1877C35.5689 28.3751 35.2411 30.6348 34.7702 32.3405C34.3099 34.0073 33.7561 34.9723 32.9518 35.6647C32.1464 36.3583 31.1025 36.7678 29.3712 36.9849C27.6019 37.2067 25.3001 37.2093 22.0579 37.2093H17.9421C14.7 37.2093 12.3982 37.2067 10.6288 36.9849C8.8976 36.7678 7.85356 36.3583 7.04821 35.6647C6.24398 34.9723 5.69001 34.0073 5.22981 32.3405C4.7589 30.6348 4.43107 28.3751 3.97247 25.1877L3.45383 21.5833C3.09651 19.1001 2.84635 17.3479 2.79874 15.9529C2.75232 14.5923 2.90659 13.7024 3.27753 12.9287C3.64877 12.1543 4.24832 11.4728 5.34315 10.6491C6.46478 9.80528 7.99336 8.89252 10.1595 7.60214L12.736 6.06737Z" stroke="#6C6C6C"/>
</svg>
