<svg width="46" height="46" viewBox="0 0 46 46" fill="none" xmlns="http://www.w3.org/2000/svg">
<path opacity="0.5" d="M17.0038 13C17.028 8.64994 17.2209 6.29412 18.7576 4.75736C20.515 3 23.3434 3 29.0002 3H31.0001C36.6569 3 39.4855 3 41.2426 4.75736C43 6.51472 43 9.34314 43 15V31C43 36.6568 43 39.4852 41.2426 41.2426C39.4855 43 36.6569 43 31.0001 43H29.0002C23.3434 43 20.515 43 18.7576 41.2426C17.2209 39.7058 17.028 37.35 17.0038 33" stroke="#6C6C6C" stroke-width="5" stroke-linecap="round"/>
<path d="M28.9997 23H3M3 23L9.99993 17M3 23L9.99993 29" stroke="#6C6C6C" stroke-width="5" stroke-linecap="round" stroke-linejoin="round"/>
</svg>
