<svg width="46" height="46" viewBox="0 0 46 46" fill="none" xmlns="http://www.w3.org/2000/svg">
<path d="M39.7568 21.6V13.08C39.7568 5.02002 37.7243 3 29.5514 3H13.2054C5.03243 3 3 5.02002 3 13.08V35.6C3 40.92 6.15678 42.18 9.98381 38.38L10.0054 38.36C11.7784 36.62 14.4811 36.76 16.0162 38.66L18.2 41.36" stroke="#6C6C6C" stroke-width="5" stroke-linecap="round" stroke-linejoin="round"/>
<path d="M34.7838 41.8C38.605 41.8 41.7027 38.9346 41.7027 35.4C41.7027 31.8654 38.605 29 34.7838 29C30.9626 29 27.8649 31.8654 27.8649 35.4C27.8649 38.9346 30.9626 41.8 34.7838 41.8Z" stroke="#6C6C6C" stroke-width="5" stroke-linecap="round" stroke-linejoin="round"/>
<path d="M43 43L40.8378 41" stroke="#6C6C6C" stroke-width="5" stroke-linecap="round" stroke-linejoin="round"/>
<path opacity="0.4" d="M12.7297 13H30.027" stroke="#6C6C6C" stroke-width="5" stroke-linecap="round" stroke-linejoin="round"/>
<path opacity="0.4" d="M14.8919 21H27.8649" stroke="#6C6C6C" stroke-width="5" stroke-linecap="round" stroke-linejoin="round"/>
</svg>
