<svg width="40" height="40" viewBox="0 0 40 40" fill="none" xmlns="http://www.w3.org/2000/svg">
<path d="M15.6105 34.5588C15.6093 33.3811 15.9975 32.2358 16.7149 31.3006C17.4323 30.3653 18.4389 29.6923 19.5786 29.3858C20.7183 29.0793 21.9275 29.1564 23.0189 29.6052C24.1102 30.054 25.0227 30.8494 25.6149 31.8682C29.6932 30.0732 31.221 27.2561 31.221 21.9022V16.0616C31.221 8.28975 26.8286 2.9203 20.001 2.9203C13.1733 2.9203 8.78092 8.2917 8.78092 16.0616V22.8757C8.7804 23.2628 8.62605 23.6338 8.3517 23.9076C8.07736 24.1813 7.70541 24.3353 7.31743 24.3358H5.36612C3.94375 24.3343 2.58005 23.77 1.5741 22.7667C0.568148 21.7634 0.0020658 20.403 0 18.9839L0 17.037C0.00154849 15.6174 0.567341 14.2563 1.57329 13.2523C2.57924 12.2482 3.94323 11.6832 5.36612 11.6812H6.29884C7.77599 4.72893 12.8318 0 20.001 0C27.1701 0 32.224 4.72893 33.7012 11.6812H34.6339C36.0564 11.6832 37.4201 12.248 38.426 13.2516C39.4319 14.2552 39.9979 15.6158 40 17.0351V18.9819C39.9985 20.4014 39.4326 21.7623 38.4266 22.766C37.4206 23.7697 36.0566 24.3343 34.6339 24.3358H34.0309C33.9556 26.6417 33.1802 28.8704 31.8073 30.7268C30.4344 32.5833 28.5288 33.98 26.3427 34.7321C26.3197 36.152 25.7323 37.5046 24.7097 38.4924C23.687 39.4802 22.313 40.0223 20.8898 39.9993C19.4666 39.9763 18.1109 39.3902 17.1208 38.3699C16.1308 37.3496 15.5875 35.9787 15.6105 34.5588ZM18.5375 34.5588C18.5375 35.0401 18.6805 35.5106 18.9486 35.9108C19.2166 36.311 19.5975 36.6229 20.0432 36.8071C20.4889 36.9913 20.9793 37.0395 21.4525 36.9456C21.9256 36.8517 22.3602 36.6199 22.7014 36.2796C23.0425 35.9392 23.2748 35.5056 23.3689 35.0336C23.463 34.5615 23.4147 34.0722 23.2301 33.6275C23.0455 33.1828 22.7329 32.8027 22.3317 32.5353C21.9306 32.2679 21.4591 32.1252 20.9766 32.1252C20.3299 32.1257 19.7098 32.3823 19.2525 32.8386C18.7952 33.2948 18.538 33.9135 18.5375 34.5588ZM34.148 21.4175H34.6339C35.281 21.4175 35.9016 21.1611 36.3593 20.7048C36.817 20.2485 37.0745 19.6295 37.075 18.9839V17.037C37.075 16.3914 36.8181 15.7722 36.3607 15.3155C35.9033 14.8588 35.2829 14.602 34.6358 14.6015H34.148V21.4175ZM2.92697 17.037V18.9839C2.92801 19.6288 3.18538 20.247 3.64264 20.7028C4.0999 21.1587 4.71971 21.415 5.36612 21.4155H5.85394V14.6015H5.36612C4.71904 14.602 4.09863 14.8588 3.64126 15.3155C3.18389 15.7722 2.92697 16.3914 2.92697 17.037Z" fill="#6C6C6C"/>
</svg>
